<svg width="822" height="329" viewBox="0 0 822 329" fill="none" xmlns="http://www.w3.org/2000/svg">
<path d="M112.896 273.584C85.5684 273.584 62.5081 264.686 43.7148 246.892C25.0123 229.006 15.6611 208.079 15.6611 184.111C15.6611 151.427 27.9629 123.782 52.5667 101.176C77.1705 78.4784 107.358 67.1298 143.129 67.1298C153.751 67.1298 163.874 68.4917 173.497 71.2153C183.121 73.939 191.065 77.2074 197.329 81.0205C203.594 84.8336 209.041 88.6468 213.671 92.4599C218.302 96.273 221.615 99.5414 223.613 102.265L226.745 106.214L181.805 144.482C181.26 143.937 180.579 143.165 179.762 142.167C178.945 141.077 176.993 139.352 173.906 136.992C170.819 134.54 167.641 132.407 164.373 130.591C161.105 128.685 156.928 126.96 151.844 125.416C146.76 123.782 141.585 122.965 136.319 122.965C120.704 122.965 107.312 128.458 96.1453 139.443C85.0691 150.429 79.531 163.638 79.531 179.072C79.531 189.876 83.5711 199.046 91.6513 206.581C99.7315 214.026 109.446 217.748 120.794 217.748C125.788 217.748 130.418 217.067 134.685 215.706C138.952 214.344 141.948 212.982 143.673 211.62L146.125 209.441L149.801 192.691H121.884L129.102 157.828H219.8L203.594 234.499C202.686 235.588 201.324 237.041 199.508 238.857C197.783 240.582 193.97 243.714 188.069 248.253C182.258 252.702 176.085 256.651 169.548 260.101C163.102 263.551 154.704 266.638 144.354 269.362C134.004 272.176 123.518 273.584 112.896 273.584ZM307.774 216.387H402.557L391.799 268H234.099L275.499 72.7133H430.203L419.308 124.327H327.248L322.89 145.299H392.616L382.539 192.691H312.813L307.774 216.387ZM449.677 72.7133H615.548L603.564 129.91H552.087L522.671 268H460.027L489.306 129.91H437.693L449.677 72.7133ZM714.281 122.965C700.481 122.965 688.043 128.276 676.967 138.898C665.981 149.521 660.488 161.959 660.488 176.213C660.488 188.106 664.574 198.047 672.745 206.037C680.916 214.026 691.311 218.021 703.931 218.021C717.912 218.021 730.35 212.755 741.245 202.224C752.23 191.601 757.723 179.118 757.723 164.773C757.723 153.061 753.638 143.165 745.467 135.085C737.296 127.005 726.9 122.965 714.281 122.965ZM821.593 160.96C821.593 180.48 815.964 199.001 804.706 216.523C793.539 233.954 778.559 247.845 759.766 258.195C740.973 268.454 721.045 273.584 699.982 273.584C669.295 273.584 644.373 264.505 625.217 246.347C606.151 228.098 596.618 206.037 596.618 180.162C596.618 160.279 602.157 141.667 613.233 124.327C624.4 106.895 639.38 93.0046 658.173 82.6547C676.967 72.3048 697.076 67.1298 718.502 67.1298C749.189 67.1298 774.02 76.2995 792.995 94.6388C812.06 112.978 821.593 135.085 821.593 160.96Z" fill="black"/>
</svg>
